<?xml version="1.0" encoding="UTF-8"?><svg id="a" xmlns="http://www.w3.org/2000/svg" viewBox="0 0 316.81 411.04"><defs><style>.b{fill:#0235f4;}.c{fill:#0135f4;}.d{fill:#226bf5;}.e{fill:#6dc0f8;}</style></defs><path class="d" d="M26.33,275.9c0,8,0,15.99,0,23.99,0,4.78,1.57,9.35,1.99,14.07,.39,4.44-.41,8.4-3.79,11.64-5.7,5.46-12.33,3.78-14.57-3.87-1.52-5.2-2.29-10.6-2.77-15.97-2.93-32.7-2.56-65.25,6.44-97.13,8.07-28.58,21.39-54.35,42.78-75.35,17.06-16.74,36.86-29.25,60.43-34.36,33.79-7.32,64.61-.08,91.31,21.95,20.55,16.96,34.69,38.7,43.45,63.84,10.48,30.07,13.35,60.86,7.81,92.26-2.17,12.3-7.54,23.21-16.3,32.29-2.08,2.16-3.32,2.4-5.91,1.01-5.11-2.73-8.87-10.15-8.01-15.86,.13-.89,.26-1.76,.98-2.49,6.81-6.98,10.07-15.66,11.18-25.09,2.76-23.56,.89-46.79-6.95-69.23-7.38-21.15-18.91-39.85-35.88-54.76-30.24-26.56-76.35-30.13-111.37-5.96-30.77,21.24-49.45,50.38-57.12,86.8-3.63,17.23-4.05,34.69-3.71,52.2Z"/><path class="e" d="M103.4,271.62c.14,22.5,4.16,44.15,14.53,64.33,7.17,13.95,15.86,26.77,28.24,36.76,5.21,4.2,10.8,7.8,16.78,10.77,8.19,4.06,9.2,11.19,7.45,17.32-1.76,6.17-7.49,8.93-13.42,6.38-8.07-3.47-15.33-8.33-22.15-13.86-18.83-15.27-31.19-35.04-39.82-57.36-5.72-14.81-9.34-30.1-10.67-45.97-1.49-17.78-.98-35.44,3.27-52.77,4.01-16.35,13.51-28.93,28.1-37.52,17.66-10.4,40.05-5.89,53.41,10.58,11.35,14,14.84,30.09,13.51,47.68-.84,11.19-.16,22.15,6.77,31.77,5.16,7.16,12.1,11.03,20.89,11.36,2.28,.09,4.62-.48,6.88-1.01,1.16-.27,1.82-.04,2.63,.72,5.71,5.43,6.67,15.3,1.92,21.74-1.6,2.16-4.36,1.87-6.65,2.17-17.14,2.2-30.29-4.77-40.36-18.21-10.4-13.87-12.89-29.68-11.47-46.59,1.08-12.81-.91-24.93-10.75-34.51-9.79-9.53-24.95-9.47-34.93-.02-7.76,7.35-11.52,16.53-13.05,26.83-.95,6.43-1.17,12.92-1.12,19.42Z"/><path class="d" d="M44.22,275.08c.3-20,2.61-41.33,9.86-61.76,8.79-24.79,24.34-44.3,47.17-57.75,3.45-2.03,7.1-3.64,10.81-5.12,.73-.29,1.43-.72,2.34-.18,8.25,4.8,11.12,12.97,6.33,20.93-.48,.8-1.04,1.39-1.98,1.76-23.12,9.04-37.77,26.24-46.66,48.83-4.27,10.85-6.07,22.25-6.82,33.86-.82,12.81-1.69,25.7-.66,38.44,1.73,21.31,8.15,41.53,17.2,60.9,2.92,6.26,6.16,12.35,9.66,18.31,2.95,5.03,4.26,10.18,.52,15.43-5.74,8.06-12.41,6.37-16.79-.41-3.98-6.15-7.38-12.64-10.43-19.31-13.41-29.32-20.32-60.08-20.54-93.92Z"/><path class="c" d="M150.67,0c27.08-.01,54.15,8.16,78.56,24.82,7.9,5.39,15.55,11.17,23.22,16.88,6.72,5,7.56,13.81,2.04,19.86-2.64,2.9-6.03,3.74-9.74,2.41-1.58-.57-2.99-1.42-4.35-2.41-9.22-6.7-18.17-13.78-27.96-19.67-17.84-10.73-37.19-16.41-57.96-17.14-14.93-.53-29.82-.02-44.32,4.06-9.94,2.79-19.53,6.54-28.75,11.22-1.04,.53-2.05,1.1-3.1,1.61-3.73,1.84-7.57,3.09-11.19-.01-3.97-3.4-5.21-7.85-3.85-12.86,1.21-4.45,4.27-7.4,8.28-9.49,11.99-6.24,24.5-11.12,37.61-14.45C121.98,1.58,135.01,.08,150.67,0Z"/><path class="b" d="M299.94,233.74c-.03,12.19-1.7,24.23-3.23,36.28-3.08,24.35-6.72,48.63-8.35,73.15-.54,8.08-.62,16.12-.03,24.2,.3,4.17,1.87,7.7,4.39,10.92,2.6,3.31,5.82,5.94,9.19,8.4,3.63,2.65,7.25,5.32,10.47,8.48,.59,.58,1.16,1.19,1.7,1.83,2.98,3.55,3.47,6.15,1.73,9.03-2.29,3.78-6.51,5.99-10.41,4.59-18.97-6.84-33.54-18.29-37.65-39.2-2.04-10.38-1.62-21.07-1-31.64,1.13-19.49,5.06-38.57,8.46-57.73,3.04-17.15,4.63-34.47,5.21-51.87,.33-9.83-1.78-19.36-4.27-28.78-1.37-5.18-.5-9.69,3.06-13.69,4.83-5.42,11.19-4.47,14.24,2.1,3.03,6.52,4.02,13.52,4.91,20.53,.98,7.77,1.51,15.58,1.59,23.41Z"/><path class="c" d="M285.1,162.32c-.08,1.62-.15,4.4-1.84,6.75-4.48,6.24-12,5.75-15.77-1.14-2.19-4-4.11-8.16-6.02-12.31-10.56-22.9-25.1-42.68-45.37-57.96-15.2-11.47-32.34-18.6-50.96-22.24-2.36-.46-3.87-1.65-4.96-3.69-3.51-6.57-2.49-13.94,2.61-18.8,1.96-1.87,4.09-2.5,6.82-1.95,29.07,5.8,53.35,20.33,74.39,40.76,18.12,17.6,30.5,38.88,39.84,62.11,.94,2.34,1.34,4.8,1.25,8.46Z"/><path class="c" d="M131.76,71.86c-15.34,.57-30.16,3.58-44.5,9.09-24.34,9.35-43.84,25.21-60.61,44.76-3.95,4.61-7.54,9.53-11.45,14.18-2.22,2.65-5.11,3.82-8.7,3.03-3.13-.69-5.12-2.69-5.81-5.55-1.29-5.34-.91-10.47,2.51-15.22,17.23-23.9,37.59-44.26,64.29-57.55,13.88-6.91,28.55-11.31,43.83-13.8,9.07-1.48,18.2-2.01,27.37-1.87,4.88,.08,6.86,1.96,7.41,6.87,.43,3.79,.15,7.47-1.69,10.91-2.07,3.87-5.32,5.56-9.65,5.31-1-.06-2-.11-2.99-.16Z"/><path class="e" d="M205.91,371.71c-17.36,.03-33.21-4.52-46.94-15.47-9.13-7.28-15.91-16.47-21.53-26.62-7.93-14.33-12.59-29.6-14.05-45.92-.91-10.15-.89-20.25,.55-30.34,.36-2.53,1.46-4.77,2.89-6.84,3.82-5.52,11.79-4.82,14.71,1.24,2.02,4.19,1.64,8.59,1.31,13-1.38,18.38,1.17,36.02,9.99,52.44,4.76,8.86,10.43,17.07,18.59,23.22,7.9,5.94,16.89,9.11,26.65,10.38,5.47,.71,10.96,.41,16.44,.85,5.71,.46,9.1,3.52,9.46,9.23,.56,8.68-3.19,13.15-11.87,14.43-2.08,.3-4.13,.41-6.2,.4Z"/><path class="d" d="M202.51,251.91c.87-20.2-3.26-39.1-15.5-55.58-9.17-12.34-20.67-21.62-36.05-25.23-2.6-.61-5.24-1.08-7.88-1.21-1.94-.09-3.22-.91-4.51-2.2-6.62-6.63-5.02-15.46,1.63-21.84,.87-.84,1.88-.49,2.84-.42,25.35,1.83,44.7,14.06,59.03,34.57,16.77,24,22.78,50.86,20.53,79.8-.28,3.57-.41,7.16-1.91,10.49-1.83,4.05-5.24,6.18-9.51,5.91-4.25-.27-6.44-2.9-7.79-6.67-1.08-3-.87-6.06-.88-9.13,0-2.83,0-5.66,0-8.49Z"/></svg>