<?xml version="1.0" encoding="UTF-8"?><svg id="a" xmlns="http://www.w3.org/2000/svg" viewBox="0 0 1066 242"><defs><style>.b{fill:#0336f4;}.c{fill:#0236f4;}.d{fill:#0235f4;}.e{fill:#0437f4;}.f{fill:#246cf5;}.g{fill:#246df5;}.h{fill:#6fc0f8;}</style></defs><path class="d" d="M911.09,186.41c-1.94,2.7-3.51,5.51-5.42,8.1-10.2,13.85-23.96,21.16-41.03,22.58-9.94,.82-19.69,0-28.97-3.68-16.89-6.67-28.76-18.16-31.81-36.62-1.79-10.84-.44-21.62,5.73-31.24,5.26-8.2,13.4-12.21,22.29-15,11.11-3.49,22.63-4.63,34.18-5.56,14.05-1.13,28.13-1.15,42.21-1.07,2.07,.01,2.65-.52,2.64-2.61-.08-10.4,.17-20.79-2.34-31.04-3.5-14.34-13.67-23.26-28.34-24.79-20.69-2.16-39.52,3.43-57.36,13.39-.8,.45-1.58,.93-2.4,1.33-3.78,1.88-7.08,1.12-8.91-2.02-1.99-3.42-1.13-7.49,2.24-9.63,6.27-3.97,12.91-7.24,19.9-9.74,16.32-5.85,33.07-8.25,50.34-5.79,13.34,1.9,24.68,7.31,32.06,19.21,4.11,6.62,6.1,13.97,7.37,21.57,.99,5.93,1.26,11.91,1.26,17.92-.02,32.49-.01,64.97,0,97.46,0,5.99-3.48,8.74-9.27,7.29-2.7-.68-4.37-3.36-4.37-7.06,0-7.66,0-15.32,0-22.98Zm-22.74-50.37c-8.83,.3-17.64,.74-26.44,1.5-8.21,.71-16.38,1.81-24.24,4.41-7.62,2.53-14.17,6.58-17.03,14.52-5.07,14.06-1.91,32.47,14.12,42.1,12.53,7.53,26.18,8.06,39.78,4.05,17.44-5.15,27.77-17.79,33.41-34.59,3.35-9.97,2.93-20.34,2.91-30.66,0-1.66-1.1-1.34-2.04-1.34-6.83-.01-13.66,0-20.48,0Z"/><path class="c" d="M139.41,186.2c-1.08,.38-1.11,1.22-1.45,1.82-9.88,17.72-24.96,27.35-45.16,29.05-14.27,1.2-27.71-1.28-39.84-9.2-11.67-7.62-19.37-18.14-21.05-32.12-1.43-11.92,.12-23.51,8.16-33.24,5.23-6.33,12.42-9.61,20.06-11.99,11.12-3.46,22.63-4.61,34.17-5.54,14.13-1.14,28.3-1.14,42.46-1.07,1.91,.01,2.34-.52,2.32-2.36-.09-10.56,.3-21.13-2.34-31.53-3.65-14.37-13.77-23.07-28.52-24.57-20.52-2.09-39.19,3.46-56.89,13.27-1.02,.56-2,1.2-3.06,1.69-3.54,1.63-6.72,.77-8.46-2.22-1.9-3.28-1.1-7.49,2.02-9.5,5.89-3.79,12.15-6.9,18.71-9.35,16.73-6.26,33.94-8.84,51.73-6.32,13.34,1.89,24.68,7.3,32.07,19.19,4.53,7.28,6.5,15.42,7.7,23.79,.8,5.54,.96,11.1,.96,16.69-.03,32.23,0,64.46-.02,96.7,0,7.08-4.62,8.17-9.7,6.92-2.48-.61-3.87-3.25-3.87-6.61,0-7,0-13.99,.01-20.99,0-.79,0-1.58,0-2.49Zm-22.96-50.16c-8.83,.3-17.64,.75-26.43,1.51-8.13,.7-16.21,1.79-23.99,4.37-7.51,2.49-13.9,6.44-17.02,14.21-6.05,15.05-.55,33.08,13.05,41.86,12.26,7.91,25.81,8.59,39.41,5.01,17.92-4.72,28.59-17.36,34.55-34.37,3.57-10.19,3.08-20.81,3.05-31.38,0-1.54-1.02-1.21-1.87-1.21-6.91-.01-13.82,0-20.73,0Z"/><path class="c" d="M582.27,217.35c-18-.35-36.23-5.93-52.28-18.02-1.83-1.38-3.51-2.93-3.53-5.44-.02-3.04,1.16-5.55,3.92-7.04,2.49-1.34,4.66-.27,6.69,1.22,7.9,5.81,16.4,10.47,25.92,13.05,15.49,4.19,31.08,4.98,46.56,.28,10.31-3.14,18.37-9.21,21.07-20.3,2.96-12.15-.61-23.04-12.67-29.17-7.81-3.97-16.24-5.82-24.62-7.93-10.8-2.72-21.8-4.68-32.3-8.49-7.11-2.57-13.86-5.97-18.91-11.72-11.88-13.55-12.45-28.92-5.82-44.8,4.05-9.71,12.05-15.96,21.33-20.5,22.01-10.77,56.49-7.79,76.33,6.53,2.57,1.86,5.01,3.86,7.12,6.25,1.76,1.99,2.58,4.23,1.89,6.9-1.03,3.97-4.99,5.75-8.59,3.78-.94-.51-1.81-1.19-2.63-1.88-13.99-11.57-30.1-16.15-48.09-14.84-8,.58-15.64,2.2-22.57,6.41-12.06,7.33-17.21,21.49-12.71,34.88,1.92,5.72,5.8,9.79,10.86,12.88,6.65,4.06,14.13,5.71,21.55,7.58,12,3.02,24.24,5.2,35.9,9.5,6.75,2.49,13.25,5.6,18.52,10.59,11.97,11.33,13.28,25.25,8.46,40.01-4.28,13.1-14.58,20.48-26.86,25.34-9.41,3.72-20.77,5.29-34.57,4.92Z"/><path class="c" d="M262.11,200.82c7.13-17.07,13.99-33.47,20.84-49.88,12.54-30.06,25.08-60.12,37.61-90.19,.64-1.54,1.31-3.05,2.32-4.4,2.08-2.75,5.33-3.73,8.67-2.56,2.6,.91,3.63,2.9,3.56,6.7-.03,1.71-.53,3.28-1.18,4.81-20.38,48.04-40.75,96.08-61.15,144.11-2.65,6.25-7.57,9.06-13.44,7.56-4.25-1.09-6.57-4.42-8.18-8.17-8.6-20-17.12-40.03-25.68-60.05-11.89-27.81-23.78-55.62-35.69-83.43-1.01-2.35-1.59-4.67-.88-7.26,.67-2.46,2.24-3.95,4.59-4.39,2.54-.48,5.18-.67,7.21,1.56,1.42,1.56,2.37,3.4,3.17,5.33,18.87,45.52,37.76,91.03,56.64,136.54,.43,1.04,.89,2.08,1.59,3.71Z"/><path class="e" d="M697.7,120c0-16.99-.03-33.98,.04-50.97,0-1.94-.48-2.53-2.48-2.5-7.83,.12-15.66,.05-23.49,.04-1.41,0-2.83,.03-4.21-.42-2.64-.85-4.15-3.06-3.98-5.9,.16-2.77,2.01-4.82,4.77-5.26,3.23-.52,6.48-.31,9.73-.32,5.66-.02,11.33-.09,16.99,.04,1.99,.05,2.7-.36,2.68-2.54-.11-13.82-.04-27.65-.06-41.47,0-6.14,3.27-8.87,9.29-7.66,2.87,.58,4.61,3.12,4.61,6.81,0,12.99,0,25.98-.01,38.98q0,5.84,5.79,5.84c13.08,0,26.16,0,39.24,.01,1.49,0,2.99,.12,4.48,.29,3.23,.39,5.01,2.29,5.14,5.38,.13,3.21-1.58,5.45-4.77,6.01-1.3,.23-2.65,.21-3.98,.21-14.41,.01-28.82,.04-43.24-.03-1.95-.01-2.71,.3-2.71,2.52,.08,30.9-.05,61.8,.11,92.69,.05,9.95,1.46,19.71,6.72,28.56,5.14,8.65,13.11,12.38,22.61,13.67,7.43,1.01,14.78,.75,21.97-1.63,.94-.31,1.95-.4,2.93-.54,4.09-.58,5.82,.38,6.71,3.7,1.01,3.78-.48,7.19-3.86,8.34-9.19,3.12-18.62,4.19-28.3,3.21-9.54-.97-18.48-3.53-25.95-9.84-8.94-7.55-13.46-17.53-15.47-28.84-.94-5.26-1.32-10.56-1.31-15.9,.02-14.16,0-28.32,0-42.47Z"/><path class="b" d="M981.78,83.04c.74-1.26,1.45-2.54,2.22-3.78,9.52-15.33,23.77-23.24,41.16-26.24,3.54-.61,7.13-.65,10.7-.9,1.07-.08,2.17-.04,3.24,.1,4.1,.55,5.57,2.03,5.67,5.61,.1,3.59-1.96,6.27-5.56,6.81-6.16,.93-12.41,1.22-18.48,2.85-12.22,3.28-22.48,9.4-29.96,19.83-6.61,9.23-9.15,19.74-9.21,30.82-.15,30.48-.13,60.97,0,91.46,.03,6.92-4.53,8.78-10.1,7.31-2.13-.56-3.71-3.08-3.88-5.89-.06-1,0-2,0-3,0-49.06,0-98.12,0-147.18,0-5.68,3.81-8.63,9.28-7.18,2.84,.75,4.37,3.2,4.37,7.04,0,6.58,0,13.16-.01,19.74,0,.82,0,1.64,0,2.46l.56,.14Z"/><path class="f" d="M364.74,159.32c.11-14.36,2-28.37,8.22-41.52,7.5-15.86,18.81-27.9,35.67-33.64,19.29-6.57,38.66,.12,51.73,17.16,8.42,10.98,12.42,23.57,13.63,37.18,.61,6.84,.27,13.64-1.01,20.38-1.01,5.34-3.23,10.09-6.98,14.12-1.35,1.45-2.49,1.34-3.81,.1-2.6-2.44-2.89-5.37-.65-8.09,2.94-3.58,3.95-7.85,4.34-12.28,1.32-15.12-1.34-29.29-9.94-42.12-10.52-15.69-28.39-22.63-45.42-16.93-13.06,4.37-22.47,13.4-29.09,25.29-5.1,9.16-7.41,19.16-7.94,29.62-.28,5.41-.38,10.81-.49,16.22-.06,2.77,.36,5.47,.64,8.19,.13,1.27,.07,2.52-.59,3.63-.88,1.5-2.11,2.77-3.95,2.54-1.87-.23-2.73-1.73-3.09-3.48-1.09-5.41-1.19-10.91-1.26-16.39Z"/><path class="h" d="M397.99,158.55c.21-6.65,.56-13.32,3.02-19.6,3.14-8.02,8.68-13.53,17.42-15.14,5.86-1.07,11,.86,14.97,5.05,5.76,6.09,7.76,13.54,6.82,21.87-.67,5.94-.3,11.66,4.41,16.19,2.6,2.5,5.7,3.39,9.16,2.81,1.36-.23,2.03,.22,2.67,1.19,1.41,2.15,1.62,5.69-.06,7.53-1.7,1.86-4.23,1.52-6.51,1.32-9.87-.91-15.68-9.59-17.34-17.55-.77-3.69-.59-7.4-.23-11.16,.51-5.28-.32-10.35-4.29-14.32-4.44-4.45-10.81-4.39-15.47-.15-3.82,3.48-5.39,7.99-5.93,12.85-1.7,15.29,.97,29.62,9.81,42.52,3.45,5.04,7.79,9.06,13.09,12.06,2.06,1.17,4.02,2.41,4.06,5.21,.03,1.93-.22,3.75-1.99,4.81-1.65,.98-3.39,.57-4.98-.32-5.5-3.09-10.3-7.02-14.24-11.97-8.4-10.55-12.53-22.73-13.95-35.99-.26-2.41-.42-4.8-.44-7.22Z"/><path class="g" d="M381.24,158.03c.51-11.75,2.05-25.1,9.82-36.8,4.6-6.93,10.61-12.34,18.3-15.72,3.17-1.39,6.14,.29,6.41,3.8,.15,2.01-.18,3.98-2.5,4.92-12.72,5.14-19.62,15.11-22.19,28.09-3.9,19.68-1.45,38.56,8.45,56.25,1.06,1.89,2.18,3.81,1.11,6.1-.74,1.58-1.87,2.92-3.63,3.13-1.83,.21-3.07-1.04-3.94-2.57-2.79-4.93-5.16-10.07-6.93-15.45-3.19-9.71-4.89-19.67-4.91-31.74Z"/><path class="b" d="M425.99,40.9c16.34-.17,29.69,5.27,41.49,14.9,1.74,1.42,3.56,2.74,5.26,4.21,2.27,1.96,2.58,4.98,.86,7.38-1.36,1.9-3.38,2.34-5.46,.95-1.86-1.25-3.62-2.66-5.34-4.1-15.19-12.69-32.59-15.74-51.54-11.67-4.22,.91-8.24,2.56-12.14,4.46-3.4,1.65-5.23,1.37-6.5-.92-1.38-2.47-.69-5.5,2.01-7.15,5.07-3.11,10.71-4.92,16.46-6.29,5.19-1.24,10.48-1.89,14.9-1.75Z"/><path class="e" d="M490.44,140.25c.12,8.96-1.93,17.67-3.18,26.47-1.41,9.96-3.17,19.87-3.35,29.98-.08,4.46,1.73,7.63,5.06,10.27,1.89,1.5,3.71,3.09,5.48,4.72,1.2,1.1,1.75,2.53,.8,4.03-.99,1.56-2.57,2.26-4.33,1.65-7.88-2.75-14.98-9.65-15.56-18.6-.69-10.69,1.14-21.06,3.4-31.4,1.75-7.98,2.93-16.03,3.66-24.16,.44-4.93,.01-9.8-1.19-14.61-.5-1.99-.57-3.94,.81-5.7,2.13-2.72,4.77-2.49,6.2,.64,1.77,3.88,1.79,8.09,2.18,12.21,.14,1.49,.02,2.99,.02,4.49Z"/><path class="e" d="M485.01,110.63c-.02,2.92-1.09,4.65-3.27,5.12-2.51,.53-3.58-1.23-4.43-3.1-2.71-5.98-5.33-11.98-9.17-17.38-8.03-11.3-18.53-18.96-32.1-22.14-2.48-.58-3.46-2.03-3.69-4.32-.24-2.47,.71-4.38,2.73-5.75,1.13-.76,2.29-.15,3.37,.12,12.82,3.3,23.29,10.37,32,20.18,6.32,7.12,10.67,15.41,13.99,24.27,.38,1.01,.66,2.06,.56,3.01Z"/><path class="e" d="M420.47,61.56c.75,0,1.5-.02,2.25,0,3.37,.08,4.24,.87,4.24,3.78,0,3.46-1.74,5.72-4.58,5.67-21.07-.36-37.09,9.29-50.05,25.08-.84,1.03-1.64,2.13-2.66,2.96-2.21,1.82-4.94,.81-5.52-1.99-.44-2.15,.08-4.12,1.4-5.88,11.63-15.51,26.31-26.21,45.97-28.98,2.96-.42,5.97-.5,8.95-.74v.1Z"/><path class="h" d="M414.92,158.23c.04-3.89-.01-6.81,.6-9.68,.59-2.76,2.02-4.2,4.19-4.16,2.48,.05,4.14,2.71,3.67,5.99-.88,6.17-.74,12.33,1.2,18.24,3.36,10.21,8.92,18.45,20.48,20.56,2.36,.43,4.78,.54,7.18,.73,3.2,.26,4.25,1.17,4.37,3.93,.15,3.22-1.34,5.31-4.34,5.6-6.69,.63-13.11-.44-18.91-3.97-9.92-6.03-14.56-15.61-17.3-26.36-.99-3.88-1.25-7.87-1.14-10.88Z"/><path class="g" d="M449.01,147.56c.58-10.63-2.3-20.04-10.07-27.66-3.87-3.79-8.44-6.13-13.8-6.93-2.56-.38-4.41-2.94-4.06-5.6,.4-3,2.36-4.7,5.13-4.34,9.79,1.27,17.21,6.41,22.67,14.39,7.71,11.25,9.92,23.77,8.05,37.14-.06,.41-.19,.81-.31,1.21-.62,2.06-1.88,3.36-4.15,3.2-2.38-.17-3.28-1.88-3.42-3.92-.17-2.48-.04-4.99-.04-7.48Z"/></svg>