<?xml version="1.0" encoding="UTF-8"?><svg id="a" xmlns="http://www.w3.org/2000/svg" viewBox="0 0 510 637"><defs><style>.b{fill:#0538f4;}.c{fill:#0537f4;}.d{fill:#0235f4;}.e{fill:#0135f4;}.f{fill:#0437f4;}.g{fill:#226bf5;}.h{fill:#226cf5;}.i{fill:#0639f4;}.j{fill:#6dc0f8;}</style></defs><path class="g" d="M96.42,322.22c-.13-31.11,2.3-56.54,10.11-81.25,9.04-28.61,22.83-54.47,44.42-75.65,17.77-17.44,38.28-30.79,62.74-36.36,42.58-9.7,79.6,1.34,110.23,32.53,24.78,25.23,38.57,56.04,44.62,90.61,3.89,22.19,4.26,44.4,.4,66.59-2.36,13.59-8.08,25.63-17.75,35.67-1.39,1.44-2.68,1.39-4.24,.67-5.17-2.41-9.23-10.59-8.1-16.25,.14-.68,.37-1.23,.85-1.74,8.17-8.65,11.54-19.32,12.63-30.82,2-21.15,.69-42.12-4.9-62.66-6.99-25.66-19.64-48.17-38.84-66.72-15.77-15.24-34.7-24.1-56.47-26.84-30.44-3.83-56.8,5.64-80.11,24.77-28.52,23.41-45.54,53.58-52.51,89.64-3.85,19.91-4.11,40.05-3.88,60.21,.08,6.66,.28,13.33,.28,19.99,0,4.38,1.21,8.56,1.83,12.83,.35,2.41,.46,4.81,.29,7.22-.31,4.38-4.53,9.2-8.78,10.18-1.61,.37-2.97-.15-4.2-1.08-2.42-1.82-3.89-4.2-4.53-7.21-3.49-16.39-4.11-33.01-4.08-44.34Z"/><path class="j" d="M180.96,316.8c.15-13.74,.85-27.45,4.58-40.77,5.22-18.66,16.37-32.65,34.08-40.75,17.59-8.05,38.69-2.33,50.92,12.64,9.49,11.61,14.24,24.75,15.11,39.58,.3,5.19-.29,10.29-.47,15.43-.47,13.35,1.55,25.99,11.49,35.97,7.49,7.53,16.6,10.16,26.99,7.86,1.58-.35,2.48,.02,3.46,1.1,4.74,5.21,5.4,14.8,1.1,20.43-1.7,2.23-4.67,1.91-7.15,2.16-20.17,2.12-34.27-7.35-44.64-23.71-6.26-9.87-9.03-20.77-9.57-32.39-.32-6.92,.93-13.77,.61-20.67-.43-9.22-2.41-17.88-7.88-25.6-9.03-12.72-24.93-17.44-38.88-8.92-9.02,5.51-14.49,13.73-17.69,23.65-2.32,7.2-3.08,14.64-3.4,22.11-.96,22.24,1.47,44.07,9.38,64.99,7.14,18.86,17.14,36.05,31.87,50.16,7.22,6.91,15.48,12.31,24.28,16.95,6.14,3.25,8.81,8.65,7.54,15.06-1.49,7.58-7.4,10.64-14.39,7.31-5.72-2.72-11.14-6-16.3-9.67-20.89-14.86-35.2-34.89-45.48-58.05-6.34-14.28-10.85-29.13-13.29-44.56-1.59-10.03-2.44-20.14-2.27-30.32Z"/><path class="h" d="M138.15,319.64c.37-23.1,2.8-45.85,10.47-67.63,9.76-27.72,27.19-49.35,53.16-63.67,2.76-1.52,5.73-2.64,8.61-3.95,.78-.35,1.49-.6,2.35-.08,7.2,4.31,10.6,12.05,5.93,20.01-.48,.82-1.06,1.39-1.98,1.75-24.85,9.81-40.77,28.29-50.62,52.52-5.16,12.69-7.2,26.07-8.04,39.68-.64,10.4-.41,20.82-.89,31.21-.58,12.48,2.17,24.49,5.09,36.44,5.1,20.82,13.39,40.36,24.26,58.82,1.1,1.87,2.03,3.81,2.64,5.9,1.64,5.59-2.07,12.78-7.56,14.64-3.16,1.07-7.32-.94-9.79-4.87-3.89-6.21-7.43-12.62-10.54-19.25-11.72-24.91-18.99-51.05-21.81-78.44-.8-7.71-1.05-15.45-1.28-23.09Z"/><path class="e" d="M249.79,21.2c33.52,.03,63.81,10.04,91,29.54,7.03,5.04,14,10.18,20.93,15.37,6.59,4.94,7.48,13.13,2.2,19.23-2.55,2.95-5.78,3.74-9.45,2.36-1.81-.68-3.37-1.78-4.92-2.92-10.12-7.45-20.03-15.18-30.88-21.57-16.07-9.47-33.4-15.05-51.9-17.24-15.24-1.8-30.47-1.23-45.58,.84-15.7,2.15-30.3,8-44.47,14.93-1.57,.77-3.09,1.63-4.67,2.36-6.78,3.09-12.33,.07-13.55-7.32-.94-5.71,1.88-11.01,7.8-14.35,7.4-4.17,15.24-7.4,23.19-10.36,19.35-7.21,39.68-10.86,60.31-10.87Z"/><path class="d" d="M379.57,399.95c-.22-18.78,2.08-37.35,5.68-55.76,4.62-23.64,7.85-47.43,8.88-71.52,.51-11.8-1.45-23.22-4.45-34.51-1.33-5.01-.94-9.55,2.57-13.57,.38-.44,.76-.89,1.2-1.27,4.61-3.93,9.35-2.99,12,2.48,1.97,4.06,3.22,8.37,4,12.81,3.78,21.68,3.68,43.35,.74,65.15-3.32,24.57-6.83,49.13-9.07,73.84-1.2,13.27-2.37,26.54-1.24,39.9,.43,5.11,2.12,9.51,5.29,13.45,3.22,4,7.22,7.12,11.33,10.11,3.91,2.84,7.76,5.76,11.09,9.29,3.45,3.66,4.06,6.22,2.26,9.04-2.49,3.9-6.47,5.45-10.78,3.8-16.73-6.39-30.23-16.36-36.77-33.85-1.86-4.97-2.45-10.19-2.68-15.42-.21-4.65-.04-9.32-.04-13.98Z"/><path class="d" d="M396.5,194.65c.11,4.38-.98,8.35-5.41,10.74-2.81,1.51-5.38,1.37-7.89-.59-1.61-1.26-2.77-2.86-3.66-4.68-3.68-7.54-7.13-15.2-11.07-22.61-11.36-21.39-26.3-39.82-45.97-54.16-16.31-11.89-34.56-19.4-54.34-23.24-1.89-.37-3.16-1.25-4.12-2.85-4-6.7-2.79-14.88,2.95-19.68,1.41-1.18,2.88-1.63,4.82-1.25,34.91,6.81,63.23,24.99,87.1,50.69,16.24,17.49,27.46,38.09,36.27,60.1,.94,2.34,1.4,4.78,1.32,7.53Z"/><path class="d" d="M231.11,74.28c3.34,0,6.34,0,9.34,0,2.63,0,4.31,1.46,4.91,3.83,1.2,4.74,.97,9.4-1.53,13.77-1.78,3.11-4.5,4.6-8.03,4.58-40.08-.25-73.94,14.87-103.02,41.73-9.07,8.38-17.29,17.55-24.63,27.51-1.33,1.81-2.74,3.58-4.3,5.19-2.31,2.39-5.18,3.35-8.42,2.24-3.2-1.1-4.52-3.64-4.93-6.86-.69-5.37,.5-10.03,3.79-14.5,14.66-19.95,31.34-37.8,52.19-51.44,22.36-14.64,47-22.71,73.52-25.41,3.82-.39,7.65-.3,11.12-.63Z"/><path class="j" d="M223.44,313.7c-.07-6.19,.18-11.99,.96-17.78,.36-2.71,1.25-5.18,2.68-7.44,1.71-2.71,4.12-4.33,7.5-3.98,3.3,.34,5.48,2.16,6.74,5.18,1.56,3.75,1.41,7.65,1.07,11.56-2.46,28.98,4.29,55.22,23.74,77.38,8.67,9.88,19.98,15.54,32.94,17.88,5.66,1.02,11.39,1.29,17.12,1.45,1.83,.05,3.68-.04,5.48,.23,6.29,.95,8.4,3.36,8.76,9.74,.43,7.43-3.76,12.33-12.03,12.98-27.02,2.11-50.08-6.12-67.64-27.32-14.22-17.18-22.64-37.03-25.84-59.12-1.02-7.01-1.64-14.03-1.48-20.76Z"/><path class="h" d="M309.93,294.01c.95-17.69-1.78-34.72-9.98-50.57-8.31-16.06-20.14-28.67-36.88-36.18-5.58-2.5-11.45-3.98-17.52-4.68-5.1-.58-9.02-4.74-9.55-10-.53-5.26,1.83-9.32,5.17-13.02,.82-.9,1.8-.68,2.78-.63,15.3,.79,29.06,5.9,41.48,14.78,14.58,10.42,24.4,24.61,31.99,40.52,9.23,19.35,12.45,39.88,11.71,61.16-.15,4.42-.56,8.8-1.17,13.17-.9,6.44-5.61,10.18-11.39,9-3.69-.75-6.34-4.34-6.59-9.55-.22-4.65-.05-9.32-.05-14Z"/><path class="i" d="M235.04,594.71c-4.37,6.98-10.22,11.6-18.26,12.97-9.51,1.62-18.26-.05-25.36-7.12-5.95-5.93-7.57-15.22-4.22-22.93,2.17-4.99,6.3-7.59,11.23-9.13,7.06-2.21,14.38-2.63,21.7-2.94,4.32-.19,8.66-.16,12.99-.17,1.12,0,1.88-.07,1.86-1.55-.07-4.24,.05-8.48-.85-12.67-1.75-8.08-6.41-12.16-14.71-12.66-8.74-.53-16.77,1.9-24.38,5.99-.44,.24-.84,.55-1.28,.77-1.66,.81-3.25,.94-4.32-.9-.99-1.71-.57-3.23,1.05-4.33,4.61-3.11,9.77-4.96,15.13-6.22,6.47-1.51,13-1.85,19.55-.4,7.72,1.7,12.52,6.54,14.68,14.04,1.02,3.53,1.48,7.18,1.49,10.85,.03,15.15,.01,30.31,0,45.46,0,1.43,.02,2.89-1.4,3.77-2.22,1.37-4.8-.11-4.88-2.88-.09-3.31-.02-6.62-.02-9.93Zm-11.53-23.75c-7.14,.45-14.32,.44-21.28,2.45-3.82,1.1-7.09,2.94-8.65,6.87-3.03,7.63,.49,16.57,7.86,20.11,9.76,4.68,21.64,1.73,28.19-6.98,4.78-6.36,5.64-13.68,5.33-21.32-.06-1.37-.93-1.11-1.72-1.12-3.25-.02-6.49,0-9.74,0Z"/><path class="b" d="M83.75,594.75c-9.01,15.79-28.76,16.11-39.39,9.3-8.79-5.63-12.4-15.99-8.72-25.74,2.03-5.38,6.32-8.19,11.54-9.81,7.07-2.2,14.4-2.61,21.72-2.93,4.24-.18,8.5-.2,12.74-.15,1.53,.02,2.04-.39,1.97-1.95-.15-3.74,.08-7.48-.55-11.21-1.47-8.84-6.59-13.41-15.59-13.78-8.58-.36-16.42,2.08-23.88,6.09-.73,.39-1.46,.77-2.23,1.07-1.4,.55-2.44-.06-3.2-1.2-.75-1.14-.87-2.37,.05-3.47,.47-.56,1.07-1.08,1.71-1.44,10.24-5.86,21.21-8.39,32.89-6.3,9.89,1.77,15.26,8.15,16.7,18.83,.35,2.56,.52,5.13,.51,7.72-.03,14.41-.01,28.83-.01,43.24,0,.67,.04,1.34-.02,2-.16,1.84-1.1,2.92-3.04,2.93-1.89,.01-3.05-.95-3.14-2.82-.13-2.58-.05-5.16-.06-7.75,0-.88,0-1.75,0-2.63Zm-11.6-23.79c-7.14,.45-14.32,.44-21.27,2.46-3.53,1.03-6.62,2.69-8.32,6.21-3.24,6.75-.38,16.11,6.09,19.94,9.21,5.45,21.92,3.21,28.78-5.01,5.49-6.58,6.57-14.32,6.17-22.51-.07-1.4-.95-1.09-1.72-1.1-3.25-.02-6.49,0-9.74,0Z"/><path class="c" d="M431.41,594.73c-1.13,1.57-2.17,3.16-3.36,4.62-11.16,13.64-36.12,11.24-43.69-4.19-2.86-5.84-2.64-11.81-.3-17.67,2.01-5.05,6.35-7.51,11.29-9.04,7.07-2.19,14.4-2.58,21.72-2.9,4.24-.18,8.5-.14,12.74-.17,.96,0,1.83,.08,1.81-1.34-.06-4.49,.19-9-.85-13.43-1.78-7.63-6.63-11.64-14.69-12.11-8.75-.51-16.77,1.94-24.39,6.02-.73,.39-1.46,.77-2.22,1.09-1.38,.58-2.47,.02-3.22-1.12-.8-1.21-.96-2.56,.14-3.67,.75-.76,1.66-1.41,2.59-1.91,9.73-5.26,20.08-7.46,31.08-5.9,9.71,1.38,15.67,7.74,17.36,18.22,.36,2.22,.6,4.45,.59,6.71-.02,15.33-.01,30.66,0,45.99,0,1.26,.06,2.55-1.09,3.41-1.02,.76-2.19,.76-3.34,.33-1.26-.47-1.71-1.51-1.72-2.77-.02-2.58,.02-5.17-.03-7.75-.02-.78,.34-1.66-.43-2.43Zm-11.08-23.77c-5.16,.27-10.31,.46-15.43,1.16-2.05,.28-4.09,.76-6.08,1.34-3.8,1.11-7.04,2.99-8.55,6.96-2.94,7.72,.58,16.48,8.03,20.02,9.5,4.52,21.17,1.73,27.68-6.52,5.12-6.5,6.01-14.04,5.63-21.94-.06-1.2-.83-1.02-1.55-1.02-3.24,0-6.49,0-9.73,0Z"/><path class="b" d="M289.84,608.23c-9.96,0-18.13-2.13-25.42-7.19-.62-.43-1.24-.84-1.82-1.32-1.53-1.27-1.76-2.8-.64-4.41,1.22-1.76,2.74-1.58,4.31-.42,4.83,3.57,10.17,6.01,16.13,6.85,6.57,.92,13.11,1.02,19.37-1.75,5.96-2.64,8.94-8.8,7.28-15-.94-3.5-3.3-5.68-6.49-7.09-5.59-2.47-11.61-3.45-17.48-4.94-3.7-.94-7.43-1.79-10.88-3.52-6.14-3.07-9.79-7.84-10.19-14.84-.44-7.76,2.64-13.83,9.21-17.89,10.71-6.62,28.64-5.34,38.45,2.54,.78,.62,1.55,1.28,2.18,2.05,1.18,1.42,1.61,2.99,.09,4.45-1.45,1.4-2.89,.83-4.21-.31-3.67-3.16-7.91-5.24-12.61-6.23-6.05-1.27-12.07-1.24-17.89,1.22-6.43,2.72-9.62,8.74-8.26,15.57,.87,4.38,3.87,6.82,7.7,8.48,3.99,1.73,8.29,2.4,12.47,3.46,4.91,1.25,9.88,2.25,14.5,4.45,6.67,3.17,10.63,8.06,10.5,15.77-.14,7.94-4.16,13.29-11.01,16.75-5.17,2.61-10.77,3.28-15.3,3.3Z"/><path class="f" d="M339.84,564.12c0-7.58-.05-15.16,.04-22.74,.02-1.73-.48-2.34-2.25-2.28-3.24,.12-6.5,.04-9.75,.02-1.88-.01-3.69-.36-3.68-2.73,.01-2.38,1.91-2.67,3.73-2.71,3.16-.06,6.34-.15,9.49,.02,2.04,.11,2.49-.64,2.45-2.54-.12-5.75-.06-11.5-.04-17.25,0-2.98,.86-4.01,3.21-3.98,2.29,.02,3.11,1.06,3.12,4.09,.02,5.58,.15,11.17-.06,16.74-.1,2.53,.75,3.02,3.08,2.95,5.66-.17,11.33-.06,16.99-.05,.91,0,1.83,.09,2.74,.19,1.48,.16,2.25,1.07,2.28,2.5,.02,1.55-.8,2.57-2.39,2.64-2.41,.11-4.83,.12-7.24,.13-4.5,.02-9,.02-13.5,0-1.13,0-1.92,.12-1.9,1.57,.2,15.41-.53,30.83,.4,46.22,.37,6.11,2.53,11.68,8.97,14.1,4.13,1.55,8.44,1.75,12.77,.71,.81-.19,1.62-.39,2.43-.56,1.51-.32,2.9-.29,3.35,1.58,.4,1.7,.08,3.06-1.74,3.88-15.02,6.8-31.39-2.83-32.29-19.27-.42-7.72-.07-15.49-.07-23.24h-.14Z"/><path class="b" d="M140.09,600.56c4.8-11.5,9.36-22.44,13.93-33.39,4.19-10.04,8.38-20.08,12.59-30.11,.41-.99,.89-1.99,1.53-2.84,.99-1.32,2.39-1.32,3.84-.82,1.38,.47,1.53,1.59,1.56,2.81,.03,1.21-.52,2.25-.97,3.32-9.05,21.33-18.1,42.66-27.15,63.99-.49,1.15-.98,2.29-1.88,3.2-1.97,1.99-4.91,2.01-6.89,.02-.96-.97-1.52-2.17-2.04-3.39-9.11-21.31-18.22-42.61-27.32-63.92-.32-.76-.69-1.54-.8-2.34-.22-1.55-.1-3.03,1.73-3.67,1.78-.62,3.32-.4,4.31,1.34,.57,1.01,1.03,2.08,1.48,3.15,8.29,19.94,16.57,39.88,24.86,59.82,.31,.75,.65,1.49,1.24,2.83Z"/><path class="i" d="M469.77,545.87c5.93-9.02,14.25-12.87,24.46-13.36,.33-.02,.67-.06,1-.02,1.64,.21,3.56,.2,3.64,2.51,.08,2.27-1.36,3.26-3.46,3.42-4.43,.33-8.74,1.08-12.76,3.08-8.56,4.27-12.56,11.44-12.68,20.74-.18,13.99-.04,27.98-.05,41.97,0,2.91-1.14,4.18-3.5,4.01-1.63-.12-2.62-.97-2.88-2.59-.09-.57-.05-1.16-.05-1.75,0-22.15,0-44.31,0-66.46,0-1.44-.06-2.9,1.29-3.83,2.22-1.53,4.89-.01,4.99,2.91,.1,3.12,.02,6.24,.02,9.36Z"/></svg>